<?xml version="1.0" encoding="iso-8859-1"?>
<!-- Generator: Adobe Illustrator 21.0.0, SVG Export Plug-In . SVG Version: 6.00 Build 0)  -->
<svg version="1.1" id="Layer_1_1_" xmlns="http://www.w3.org/2000/svg" xmlns:xlink="http://www.w3.org/1999/xlink" x="0px" y="0px"
	 viewBox="0 0 52 41" style="enable-background:new 0 0 52 41;" xml:space="preserve">
<path d="M37,0c-4.216,0-8.162,1.742-11,4.818C23.162,1.742,19.216,0,15,0C6.729,0,0,6.729,0,15s6.729,15,15,15
	c5.514,0,10,4.486,10,10c0,0.553,0.448,1,1,1s1-0.447,1-1c0-5.514,4.486-10,10-10c8.271,0,15-6.729,15-15S45.271,0,37,0z M37,28
	c-4.913,0-9.146,2.968-11,7.205C24.146,30.968,19.913,28,15,28C7.832,28,2,22.168,2,15S7.832,2,15,2
	c4.003,0,7.726,1.813,10.214,4.977c0.38,0.482,1.192,0.482,1.572,0C29.274,3.813,32.997,2,37,2c7.168,0,13,5.832,13,13
	S44.168,28,37,28z"/>
<path d="M26,11c-6.994,0-12.514,6.074-12.745,6.333c-0.34,0.38-0.34,0.954,0,1.334C13.486,18.926,19.006,25,26,25
	s12.514-6.074,12.745-6.333c0.34-0.38,0.34-0.954,0-1.334C38.514,17.074,32.994,11,26,11z M26,23c-4.81,0-9.012-3.501-10.591-5
	c1.579-1.499,5.781-5,10.591-5s9.012,3.501,10.591,5C35.012,19.499,30.81,23,26,23z"/>
<circle cx="26" cy="18" r="2"/>
</svg>
