<?xml version="1.0" encoding="iso-8859-1"?>
<!-- Generator: Adobe Illustrator 21.0.0, SVG Export Plug-In . SVG Version: 6.00 Build 0)  -->
<svg version="1.1" id="Layer_1_1_" xmlns="http://www.w3.org/2000/svg" xmlns:xlink="http://www.w3.org/1999/xlink" x="0px" y="0px"
	 viewBox="0 0 60 60" style="enable-background:new 0 0 60 60;" xml:space="preserve">
<path d="M59,0H1C0.448,0,0,0.448,0,1v58c0,0.552,0.448,1,1,1h58c0.552,0,1-0.448,1-1V1C60,0.448,59.552,0,59,0z M58,58H2V2h56V58z"
	/>
<path d="M5,56h50c0.552,0,1-0.448,1-1V5c0-0.552-0.448-1-1-1H5C4.448,4,4,4.448,4,5v50C4,55.552,4.448,56,5,56z M6,6h48v48H6V6z"/>
<path d="M51,8H9C8.448,8,8,8.448,8,9v42c0,0.552,0.448,1,1,1h42c0.552,0,1-0.448,1-1V9C52,8.448,51.552,8,51,8z M50,50H10V10h40V50z
	"/>
<path d="M13,48h34c0.552,0,1-0.448,1-1V13c0-0.552-0.448-1-1-1H13c-0.552,0-1,0.448-1,1v34C12,47.552,12.448,48,13,48z M14,14h32v32
	H14V14z"/>
<path d="M43,16H17c-0.552,0-1,0.448-1,1v26c0,0.552,0.448,1,1,1h26c0.552,0,1-0.448,1-1V17C44,16.448,43.552,16,43,16z M42,42H18V18
	h24V42z"/>
<path d="M21,40h18c0.552,0,1-0.448,1-1V21c0-0.552-0.448-1-1-1H21c-0.552,0-1,0.448-1,1v18C20,39.552,20.448,40,21,40z M22,22h16v16
	H22V22z"/>
<path d="M35,24H25c-0.552,0-1,0.448-1,1v10c0,0.552,0.448,1,1,1h10c0.552,0,1-0.448,1-1V25C36,24.448,35.552,24,35,24z M34,34h-8v-8
	h8V34z"/>
<circle cx="30" cy="30" r="2"/>
</svg>
